<?xml version="1.0" standalone="no"?>
<!DOCTYPE svg PUBLIC "-//W3C//DTD SVG 20010904//EN"
 "http://www.w3.org/TR/2001/REC-SVG-20010904/DTD/svg10.dtd">
<svg version="1.0" xmlns="http://www.w3.org/2000/svg"
 width="248.000000pt" height="191.000000pt" viewBox="0 0 248.000000 191.000000"
 preserveAspectRatio="xMidYMid meet">

<g transform="translate(0.000000,191.000000) scale(0.100000,-0.100000)"
fill="#000000" stroke="none">
<path d="M1040 1450 c0 -4 -6 -7 -12 -8 -125 -14 -170 -21 -181 -31 -8 -6 -17
-9 -20 -6 -4 3 -5 2 -2 -2 3 -3 -5 -11 -17 -17 -12 -6 -35 -36 -51 -66 -29
-56 -29 -61 -15 -173 1 -10 7 -16 13 -13 7 2 12 -2 12 -10 0 -7 -4 -11 -8 -9
-4 3 -5 -4 -2 -15 3 -12 2 -20 -3 -18 -25 8 -111 -120 -100 -148 3 -9 2 -12
-5 -8 -7 4 -10 -23 -8 -84 2 -56 7 -89 13 -85 5 4 7 -1 3 -10 -8 -21 31 -89
46 -80 6 4 7 1 2 -7 -5 -8 -1 -18 10 -27 11 -7 15 -13 10 -13 -5 0 16 -18 45
-40 30 -22 60 -38 66 -36 7 3 14 0 16 -6 6 -16 32 -20 113 -19 80 1 92 3 121
19 12 6 24 8 28 5 3 -3 6 -1 6 4 0 6 55 -45 122 -113 133 -135 150 -144 204
-102 82 63 77 78 -63 219 -65 65 -118 122 -118 126 1 26 18 94 24 97 11 7 4
138 -10 171 -7 17 -13 35 -14 41 -7 32 -135 167 -150 158 -3 -2 -1 1 4 7 6 7
6 21 1 34 -5 13 -6 26 -3 29 4 3 2 6 -3 6 -5 0 -10 8 -11 18 -1 9 -2 22 -3 27
-5 23 1 46 9 40 13 -7 36 35 33 60 -6 48 -14 65 -33 76 -25 13 -69 19 -69 9z
m60 -40 c28 -28 25 -64 -6 -89 -21 -16 -39 -20 -104 -18 -77 1 -110 -10 -110
-36 0 -6 -9 -30 -21 -54 -20 -42 -20 -44 -3 -71 21 -32 25 -92 6 -92 -18 0
-70 59 -90 100 -15 33 -24 143 -11 134 4 -2 10 6 13 19 8 29 48 73 75 82 11 3
21 9 21 13 0 4 18 8 41 10 22 1 46 4 52 5 6 1 12 -4 13 -10 1 -7 2 -17 3 -23
0 -5 6 -10 12 -10 5 0 8 4 5 9 -3 5 1 12 10 15 9 3 14 12 11 19 -9 23 59 21
83 -3z m-52 -135 c33 -11 67 -154 35 -148 -7 2 -13 -2 -13 -8 0 -5 -4 -8 -9
-5 -14 9 -21 -20 -8 -34 9 -10 9 -11 0 -6 -7 3 -14 -2 -18 -13 -3 -11 -13 -25
-23 -33 -15 -11 -16 -11 -4 3 11 14 9 17 -13 17 -30 0 -42 -15 -25 -31 10 -9
11 -9 6 1 -4 6 -5 12 -2 12 2 0 11 -13 19 -30 11 -20 12 -32 5 -36 -7 -5 -8
-2 -3 7 5 8 0 7 -12 -3 -20 -18 -37 -24 -30 -10 4 9 -40 52 -47 44 -3 -3 -6 0
-6 7 0 7 -5 9 -11 5 -7 -4 -6 2 2 17 20 37 19 81 -2 110 -19 27 -26 70 -11 68
4 -1 14 -1 22 0 13 1 13 2 0 11 -8 5 -10 10 -4 10 6 0 11 7 12 15 1 8 3 21 4
29 1 10 16 12 62 9 34 -2 67 -6 74 -8z m107 -190 c18 -13 36 -21 40 -17 5 4 5
2 2 -4 -4 -7 11 -34 33 -62 28 -34 38 -56 33 -68 -5 -13 -3 -15 7 -9 8 5 11 4
7 -1 -3 -5 -7 -47 -8 -92 -2 -45 -7 -82 -12 -82 -4 0 -6 -4 -2 -9 3 -5 1 -12
-5 -16 -5 -3 -10 -13 -10 -21 0 -10 5 -12 13 -8 8 5 8 2 -2 -9 -16 -20 -26
-23 -15 -4 5 8 2 7 -9 -2 -10 -8 -15 -16 -13 -19 3 -2 -18 -24 -47 -49 -56
-47 -112 -80 -101 -60 3 7 0 5 -8 -3 -18 -21 -149 -19 -200 3 -20 8 -40 12
-45 9 -4 -4 -5 -3 0 2 8 11 -42 47 -55 40 -5 -3 -7 -2 -6 3 3 10 -58 94 -64
88 -2 -2 -5 4 -6 13 -3 32 -8 47 -17 62 -15 24 -5 135 17 187 6 15 10 34 9 42
-1 7 2 10 8 6 6 -3 12 -1 12 4 1 6 2 15 3 20 0 5 5 13 10 18 5 5 6 2 2 -7 -4
-8 -1 -6 8 4 8 10 14 22 11 25 -10 18 45 8 61 -11 11 -12 13 -18 7 -14 -7 4
-13 3 -13 -3 0 -6 -11 -22 -26 -36 -14 -14 -22 -30 -19 -35 4 -6 1 -9 -6 -8
-29 7 -46 -122 -26 -197 3 -11 6 -23 6 -26 1 -3 9 -14 19 -25 10 -10 21 -27
25 -37 4 -10 14 -17 22 -15 13 2 16 26 19 138 4 142 6 163 14 155 10 -10 41
27 35 41 -5 13 -9 12 -25 -3 -37 -33 -47 -68 -49 -167 -1 -53 -6 -99 -10 -102
-29 -17 -63 152 -37 183 6 7 8 16 5 19 -3 3 1 13 9 22 8 10 27 32 42 51 22 26
33 32 50 27 12 -4 22 -14 22 -22 0 -8 6 -14 13 -12 7 2 28 -14 46 -35 31 -34
35 -36 51 -22 22 20 43 19 62 -2 37 -43 43 -68 43 -185 0 -64 -1 -115 -3 -113
-2 2 -20 -4 -40 -12 -20 -8 -59 -16 -87 -17 -27 -2 -45 -1 -40 1 6 2 9 56 7
142 -3 116 -6 140 -19 145 -22 9 -27 1 -13 -24 7 -13 10 -64 9 -135 l-2 -113
-26 9 c-14 6 -31 15 -39 21 -8 7 -16 8 -23 1 -6 -6 6 -17 32 -33 45 -24 162
-39 196 -25 10 5 20 9 23 9 20 5 50 29 45 36 -3 5 0 12 6 16 8 4 9 3 5 -4 -4
-7 -3 -12 2 -12 15 0 73 70 67 81 -4 5 -1 9 5 9 6 0 8 5 5 10 -3 6 -2 10 3 10
6 0 13 7 16 16 4 10 2 13 -7 8 -8 -5 -7 -2 2 9 27 33 5 159 -34 201 -13 15
-21 26 -18 26 3 0 -11 14 -32 30 -21 17 -41 30 -45 30 -4 0 -11 7 -14 16 -3 8
-2 12 3 9 5 -3 12 -1 16 5 10 17 36 11 70 -15z m-23 -82 c11 -12 26 -20 31
-16 6 3 7 1 4 -5 -8 -12 2 -44 12 -38 7 5 13 -32 13 -99 1 -54 -2 -68 -20
-102 -7 -13 -9 -23 -5 -23 4 0 0 -5 -9 -11 -10 -5 -18 -15 -18 -21 0 -7 5 -6
15 2 24 20 18 5 -7 -16 -12 -10 -18 -13 -14 -6 4 7 1 12 -8 12 -13 0 -16 16
-17 90 -1 50 -3 95 -4 100 -1 6 -3 15 -4 21 0 5 -5 8 -10 4 -5 -3 -13 0 -17 6
-4 8 -3 9 4 5 22 -13 12 15 -13 40 -14 14 -30 22 -37 18 -6 -4 -8 -3 -4 4 3 6
0 17 -7 24 -12 11 -9 17 22 40 39 29 36 30 93 -29z m133 -363 c4 -6 10 -8 15
-5 5 3 12 0 16 -6 5 -8 3 -9 -7 -4 -8 5 12 -17 44 -49 31 -31 57 -61 57 -66 0
-5 5 -12 12 -16 7 -5 9 -2 4 7 -4 8 0 5 9 -6 9 -11 22 -19 28 -17 7 2 9 1 5
-3 -4 -4 2 -17 13 -28 11 -12 17 -28 13 -37 -4 -8 -7 -23 -8 -32 -1 -10 -6
-21 -11 -25 -4 -5 -5 -1 -1 7 7 13 6 13 -6 0 -27 -30 -55 -40 -68 -25 -7 8
-17 12 -23 8 -5 -3 -7 -2 -4 4 6 9 -64 86 -74 81 -2 -2 -3 -1 -1 1 5 10 -72
80 -81 74 -6 -3 -7 -1 -4 4 8 13 -17 36 -27 25 -4 -4 -6 -2 -4 5 2 6 -6 19
-17 27 -11 9 -13 14 -5 11 9 -3 33 12 58 35 45 42 57 47 67 30z"/>
<path d="M1017 1215 c3 -8 9 -12 14 -9 12 7 11 11 -5 17 -10 4 -13 1 -9 -8z"/>
<path d="M1216 1451 c-16 -6 -20 -19 -21 -65 -1 -31 3 -60 7 -62 7 -4 504 -8
579 -4 8 0 9 38 3 96 l-5 40 -272 2 c-150 0 -281 -3 -291 -7z m92 -63 c-3 -39
-6 -43 -32 -46 -19 -2 -34 3 -47 17 -11 12 -15 21 -9 21 5 0 10 7 10 15 0 8
-6 15 -12 15 -9 0 -8 4 2 10 8 5 32 10 53 10 l38 0 -3 -42z m112 27 c0 -8 7
-15 16 -15 13 0 14 3 5 13 -8 11 -1 14 39 16 41 2 51 -1 60 -20 8 -15 9 -19 1
-15 -6 4 -11 2 -11 -3 0 -6 5 -11 10 -11 7 0 7 -6 0 -20 -19 -35 -108 -23 -94
13 4 11 1 17 -8 17 -9 0 -14 -9 -14 -22 1 -19 -5 -23 -35 -26 -25 -2 -40 3
-54 18 -11 12 -13 20 -6 20 7 0 11 8 10 18 -3 30 0 32 41 32 29 0 40 -4 40
-15z m225 -30 c0 -43 -14 -52 -60 -41 -18 5 -24 14 -27 45 l-3 38 45 -1 45 -1
0 -40z m110 0 c0 -43 -14 -52 -61 -41 -20 5 -23 11 -20 39 3 17 5 36 5 40 1 5
18 7 39 5 36 -3 37 -4 37 -43z"/>
<path d="M1310 1260 c0 -6 62 -10 166 -10 95 0 163 4 160 9 -8 13 -326 14
-326 1z"/>
<path d="M1315 1189 c-4 -5 -5 -12 -3 -14 2 -2 74 -5 161 -7 147 -3 157 -2
157 16 0 13 -5 16 -17 12 -20 -8 -270 -9 -283 -1 -5 3 -12 0 -15 -6z"/>
<path d="M1310 1105 c0 -8 5 -15 10 -15 6 0 10 7 10 15 0 8 -4 15 -10 15 -5 0
-10 -7 -10 -15z"/>
<path d="M1465 1109 c-10 -15 3 -25 16 -12 7 7 7 13 1 17 -6 3 -14 1 -17 -5z"/>
<path d="M1542 1111 c-11 -7 -11 -9 2 -14 10 -4 16 -1 16 8 0 17 -1 17 -18 6z"/>
<path d="M1615 1110 c-3 -5 -1 -10 4 -10 6 0 11 5 11 10 0 6 -2 10 -4 10 -3 0
-8 -4 -11 -10z"/>
<path d="M1390 1100 c0 -5 5 -10 10 -10 6 0 10 5 10 10 0 6 -4 10 -10 10 -5 0
-10 -4 -10 -10z"/>
<path d="M1499 1041 c-3 -24 3 -236 7 -241 10 -9 64 -5 64 5 0 6 4 4 8 -2 6
-9 31 -12 83 -9 40 2 77 4 80 5 9 2 6 211 -3 211 -9 0 -10 -9 -14 -105 -1 -38
-2 -75 -3 -80 -1 -8 -150 -12 -191 -6 -3 1 -5 48 -6 105 0 101 0 104 20 97 12
-4 59 -6 106 -5 109 3 106 2 92 16 -11 11 -241 20 -243 9z"/>
<path d="M1679 975 c-1 -6 -1 -13 0 -17 0 -5 -3 -7 -9 -5 -5 1 -20 -11 -34
-28 -20 -25 -26 -27 -39 -17 -24 20 -33 -6 -10 -29 18 -19 19 -18 68 31 38 39
46 53 37 62 -7 7 -13 8 -13 3z"/>
<path d="M1502 743 c-8 -3 -6 -233 3 -242 8 -8 75 -8 75 0 0 3 26 2 57 -2 31
-4 60 -6 65 -3 23 15 -1 20 -86 20 -61 0 -92 -4 -88 -11 3 -5 -2 -4 -11 4 -20
16 -22 22 -5 18 10 -1 12 19 10 82 -2 52 2 88 9 97 8 10 34 14 83 14 114 0
114 0 112 -78 -1 -37 2 -79 5 -94 5 -17 3 -28 -4 -31 -7 -2 -9 -8 -5 -12 19
-20 26 14 25 116 -1 75 -5 113 -13 116 -13 5 -219 10 -232 6z"/>
<path d="M1645 640 c-32 -32 -41 -37 -57 -29 -16 9 -19 8 -16 -7 1 -9 10 -21
19 -27 12 -7 26 1 64 37 30 30 44 51 38 57 -5 5 -23 -6 -48 -31z"/>
</g>
</svg>
