<?xml version="1.0" standalone="no"?>
<!DOCTYPE svg PUBLIC "-//W3C//DTD SVG 20010904//EN"
 "http://www.w3.org/TR/2001/REC-SVG-20010904/DTD/svg10.dtd">
<svg version="1.0" xmlns="http://www.w3.org/2000/svg"
 width="353.000000pt" height="707.000000pt" viewBox="0 0 353.000000 707.000000"
 preserveAspectRatio="xMidYMid meet">

<g transform="translate(0.000000,707.000000) scale(0.100000,-0.100000)"
fill="#000000" stroke="none">
<path d="M1473 5335 c-17 -7 -39 -27 -48 -44 -14 -28 -20 -31 -60 -31 -47 0
-85 -25 -85 -55 0 -12 -17 -15 -94 -15 -149 0 -136 62 -136 -637 l0 -584 25
-24 24 -25 421 0 421 0 24 25 c23 23 25 31 25 130 l0 105 38 0 c145 0 415 146
443 240 10 34 9 43 -10 75 -11 20 -21 52 -21 71 0 67 -73 99 -118 51 -27 -29
-28 -67 -3 -98 15 -18 28 -23 60 -22 35 2 44 -2 53 -22 17 -37 -5 -74 -71
-122 -176 -129 -370 -167 -456 -92 -44 39 -59 86 -53 168 10 138 147 381 214
381 46 0 63 -16 57 -54 -4 -28 -1 -39 21 -61 22 -22 33 -26 59 -21 44 9 61 29
61 72 0 48 -34 78 -81 71 -20 -4 -36 -1 -43 8 -20 24 -78 30 -116 11 l-34 -16
0 159 c0 145 -2 161 -21 185 -19 25 -25 26 -115 26 -77 0 -94 3 -94 15 0 31
-38 55 -88 55 -43 0 -48 3 -61 31 -8 19 -27 37 -47 45 -41 17 -50 17 -91 -1z
m79 -36 c11 -6 26 -26 34 -44 13 -32 17 -34 71 -37 l58 -3 0 -45 0 -45 -195 0
-195 0 0 45 0 45 58 3 c54 3 58 5 71 36 21 51 57 67 98 45z m-272 -164 c0 -8
9 -24 20 -35 19 -19 33 -20 220 -20 187 0 201 1 220 20 11 11 20 27 20 35 0
13 15 15 93 13 l92 -3 3 -192 2 -191 -30 -46 c-76 -111 -116 -240 -107 -344 5
-63 4 -68 -25 -101 -24 -27 -29 -41 -26 -68 5 -40 -21 -67 -103 -109 -117 -59
-220 -53 -283 16 -53 59 -60 149 -20 249 14 36 20 42 38 35 12 -3 44 -9 73
-11 69 -6 116 17 148 72 83 141 -63 299 -212 228 -76 -35 -110 -143 -70 -220
16 -30 16 -33 -9 -88 -87 -189 2 -357 188 -356 78 0 145 23 224 77 48 33 71
43 88 38 25 -6 74 14 95 40 8 9 17 16 22 16 14 0 11 -204 -3 -218 -9 -9 -117
-12 -424 -12 -366 0 -413 2 -418 16 -8 21 -8 1159 1 1167 3 4 46 7 95 7 72 0
88 -3 88 -15z m944 -377 c8 -14 7 -21 -6 -34 -30 -30 -75 9 -48 42 16 18 39
15 54 -8z m-678 -114 c84 -55 65 -192 -31 -224 -63 -21 -144 27 -161 95 -9 35
13 91 47 120 36 30 106 34 145 9z m853 -58 c23 -28 -17 -68 -45 -45 -15 12
-19 41 -7 52 11 12 40 8 52 -7z m-530 -347 c22 -29 23 -31 6 -49 -31 -34 -75
-19 -75 24 0 19 27 57 39 55 3 0 17 -14 30 -30z"/>
<path d="M1170 4985 c0 -13 26 -15 186 -15 144 0 185 3 182 13 -4 9 -52 13
-186 15 -158 2 -182 0 -182 -13z"/>
<path d="M1175 4899 c-4 -6 -3 -15 2 -20 5 -5 150 -8 349 -7 293 3 339 5 339
18 0 13 -46 15 -342 18 -240 1 -344 -1 -348 -9z"/>
<path d="M1175 4799 c-4 -6 -3 -15 2 -20 5 -5 150 -8 349 -7 293 3 339 5 339
18 0 13 -46 15 -342 18 -240 1 -344 -1 -348 -9z"/>
<path d="M1450 4597 c-31 -15 -49 -61 -34 -85 6 -9 23 -24 37 -32 24 -13 30
-13 55 0 20 12 28 25 30 50 5 58 -39 92 -88 67z m50 -43 c11 -12 10 -18 -3
-31 -8 -9 -23 -13 -31 -10 -19 8 -21 43 -3 50 20 9 24 8 37 -9z"/>
</g>
</svg>
