<?xml version="1.0" standalone="no"?>
<!DOCTYPE svg PUBLIC "-//W3C//DTD SVG 20010904//EN"
 "http://www.w3.org/TR/2001/REC-SVG-20010904/DTD/svg10.dtd">
<svg version="1.0" xmlns="http://www.w3.org/2000/svg"
 width="353.000000pt" height="707.000000pt" viewBox="0 0 353.000000 707.000000"
 preserveAspectRatio="xMidYMid meet">

<g transform="translate(0.000000,707.000000) scale(0.100000,-0.100000)"
fill="#000000" stroke="none">
<path d="M2000 5011 c-75 -24 -138 -80 -160 -143 -7 -18 -23 -41 -36 -51 -21
-16 -29 -17 -59 -6 -46 17 -81 -1 -96 -51 l-11 -36 -57 4 c-63 4 -97 -14 -132
-71 -10 -17 -32 -35 -51 -41 -41 -14 -62 -53 -48 -90 14 -38 67 -68 110 -63
l35 4 1 -51 c2 -148 83 -226 234 -226 131 0 215 61 295 212 33 64 47 80 89
103 186 105 243 290 130 424 -55 66 -173 106 -244 82z m113 -42 c81 -22 147
-111 147 -196 -1 -92 -63 -175 -177 -238 -46 -24 -57 -37 -94 -108 -80 -153
-148 -202 -274 -195 -79 4 -109 18 -149 72 -28 37 -34 153 -12 230 16 55 15
76 -5 76 -5 0 -19 -21 -30 -46 -26 -54 -57 -71 -97 -51 -19 8 -27 20 -27 37 0
21 5 26 33 28 26 3 35 10 46 36 28 66 103 96 153 61 30 -21 46 -75 41 -143 -2
-47 0 -57 14 -60 14 -3 19 6 24 37 4 23 8 41 9 41 2 0 23 -11 46 -25 46 -26
122 -34 135 -14 9 15 -14 29 -49 29 -39 0 -98 32 -124 68 -44 59 -53 152 -17
166 26 10 44 -13 44 -54 0 -44 40 -100 71 -100 26 0 24 16 -6 52 -39 46 -31
83 26 120 14 9 30 33 37 55 14 47 66 100 118 118 48 17 68 18 117 4z"/>
<path d="M1110 4557 c-24 -12 -25 -15 -28 -142 l-3 -130 61 -139 c33 -77 68
-148 78 -159 9 -10 54 -48 99 -83 l82 -65 3 -97 c2 -78 6 -97 18 -97 12 0 16
20 18 107 l3 107 -93 74 c-51 40 -98 80 -105 88 -6 8 -37 72 -67 144 l-56 129
0 113 0 113 31 0 c25 0 32 -6 45 -35 7 -19 14 -49 14 -67 0 -41 13 -63 33 -55
36 14 -8 168 -53 192 -35 18 -48 18 -80 2z"/>
<path d="M2338 4555 c-44 -25 -86 -179 -52 -192 21 -8 34 13 34 55 0 18 7 48
14 67 13 29 20 35 45 35 l31 0 0 -113 0 -113 -56 -129 c-30 -72 -61 -136 -67
-144 -7 -8 -54 -48 -105 -88 l-93 -74 3 -107 c2 -87 6 -107 18 -107 12 0 16
19 18 97 l3 97 89 71 c49 38 96 80 104 93 8 12 40 80 70 150 l56 129 0 128 c0
95 -3 130 -13 139 -23 19 -71 22 -99 6z"/>
<path d="M1265 4306 c-17 -7 -36 -21 -44 -30 -13 -16 -4 -28 95 -127 60 -60
114 -109 121 -109 29 0 9 30 -77 115 -49 49 -90 95 -90 102 0 9 15 13 41 13
38 0 48 -6 118 -74 42 -41 88 -77 103 -81 37 -9 102 -67 122 -109 13 -27 16
-66 16 -189 0 -128 3 -157 16 -168 29 -24 35 9 32 171 -3 138 -6 160 -26 202
-27 54 -78 103 -136 129 -23 10 -66 43 -96 75 -52 53 -117 94 -150 93 -8 0
-29 -6 -45 -13z"/>
<path d="M2182 4313 c-13 -3 -58 -37 -100 -77 -43 -39 -93 -79 -113 -88 -55
-25 -105 -73 -131 -126 -20 -42 -23 -64 -26 -202 -3 -162 3 -195 32 -171 13
11 16 40 16 168 0 123 3 162 16 189 20 42 85 100 122 109 15 4 61 40 103 81
71 68 80 74 119 74 23 0 40 -4 38 -9 -1 -6 -42 -50 -90 -100 -83 -86 -105
-121 -75 -121 19 0 228 211 224 224 -2 6 -18 21 -37 34 -32 21 -50 24 -98 15z"/>
</g>
</svg>
