<?xml version="1.0" standalone="no"?>
<!DOCTYPE svg PUBLIC "-//W3C//DTD SVG 20010904//EN"
 "http://www.w3.org/TR/2001/REC-SVG-20010904/DTD/svg10.dtd">
<svg version="1.0" xmlns="http://www.w3.org/2000/svg"
 width="353.000000pt" height="707.000000pt" viewBox="0 0 353.000000 707.000000"
 preserveAspectRatio="xMidYMid meet">

<g transform="translate(0.000000,707.000000) scale(0.100000,-0.100000)"
fill="#000000" stroke="none">
<path d="M2145 5031 c-48 -21 -72 -48 -58 -62 6 -6 25 -1 54 16 33 18 58 25
102 25 203 0 292 -240 137 -372 -87 -75 -207 -69 -286 15 -62 65 -73 119 -49
235 6 26 4 32 -9 32 -19 0 -34 -35 -43 -96 -4 -34 -10 -44 -29 -48 -13 -3 -52
-28 -87 -55 l-65 -50 -23 25 c-95 102 -268 139 -385 84 -53 -26 -102 -76 -87
-91 8 -8 24 0 57 25 58 44 115 60 185 52 72 -9 124 -33 193 -89 32 -26 64 -47
71 -47 7 0 24 12 38 26 28 31 107 84 125 84 7 0 18 -16 25 -37 16 -49 85 -116
142 -138 46 -17 139 -17 193 0 20 6 23 2 33 -62 13 -76 4 -145 -28 -219 -22
-49 -349 -398 -384 -411 -60 -20 -290 16 -311 49 -21 34 5 42 100 31 98 -12
145 -4 169 30 25 36 19 75 -17 111 -29 29 -46 35 -131 51 -98 19 -99 19 -230
-3 l-132 -21 -48 52 c-107 116 -141 251 -97 387 13 39 20 73 17 77 -14 14 -36
-9 -51 -53 -50 -147 -20 -299 83 -416 23 -25 41 -48 41 -51 0 -3 -19 -8 -41
-12 -33 -6 -44 -4 -51 9 -7 13 -28 16 -111 16 -67 0 -107 -4 -115 -12 -9 -9
-12 -69 -12 -210 0 -231 -7 -218 120 -218 58 0 90 5 110 16 27 16 35 15 236
-40 118 -32 230 -56 256 -56 32 0 129 26 285 76 265 84 293 100 293 164 0 72
-47 88 -177 62 -51 -11 -93 -17 -93 -13 0 3 59 65 130 136 140 139 187 201
213 279 19 56 22 181 6 239 -10 35 -8 40 22 74 146 167 33 424 -185 423 -37 0
-77 -8 -101 -19z m-368 -925 c40 -7 84 -21 98 -30 32 -21 33 -60 1 -81 -20
-13 -36 -14 -122 -4 l-98 12 -24 -28 c-25 -30 -24 -66 3 -94 17 -17 181 -50
253 -51 29 0 121 14 205 31 83 16 161 28 173 25 30 -8 38 -34 19 -62 -12 -18
-63 -39 -237 -95 -296 -96 -292 -96 -563 -21 l-210 59 -3 145 -3 146 73 12
c40 7 118 20 173 30 126 22 172 23 262 6z m-547 -196 l0 -181 -77 3 -78 3 -3
178 -2 177 80 0 80 0 0 -180z"/>
<path d="M2228 4863 c-3 -36 -5 -38 -43 -43 -27 -3 -40 -10 -40 -20 0 -10 13
-17 40 -20 38 -5 40 -7 43 -42 2 -24 8 -38 17 -38 9 0 15 14 17 38 3 35 5 37
43 42 27 3 40 10 40 20 0 10 -13 17 -40 20 -38 5 -40 7 -43 43 -2 23 -8 37
-17 37 -9 0 -15 -14 -17 -37z"/>
<path d="M1768 4436 c-24 -42 -46 -76 -50 -76 -4 0 -18 18 -30 40 -13 22 -30
40 -38 40 -9 0 -26 -20 -40 -45 l-24 -44 -71 -3 c-54 -2 -70 -6 -70 -18 0 -12
17 -16 80 -18 l80 -3 19 36 c11 19 22 35 25 35 3 0 19 -20 34 -45 16 -25 33
-45 38 -45 5 0 28 34 51 75 24 41 46 75 50 75 4 0 31 -45 60 -100 29 -55 58
-102 65 -104 6 -3 30 24 52 60 l40 64 90 0 c67 0 90 3 94 14 9 23 -2 26 -105
26 l-99 0 -31 -50 c-19 -31 -35 -47 -40 -42 -5 5 -33 51 -61 103 -29 51 -57
94 -64 97 -7 2 -31 -31 -55 -72z"/>
</g>
</svg>
