<?xml version="1.0" standalone="no"?>
<!DOCTYPE svg PUBLIC "-//W3C//DTD SVG 20010904//EN"
 "http://www.w3.org/TR/2001/REC-SVG-20010904/DTD/svg10.dtd">
<svg version="1.0" xmlns="http://www.w3.org/2000/svg"
 width="353.000000pt" height="707.000000pt" viewBox="0 0 353.000000 707.000000"
 preserveAspectRatio="xMidYMid meet">

<g transform="translate(0.000000,707.000000) scale(0.100000,-0.100000)"
fill="#000000" stroke="none">
<path d="M1530 5031 c-8 -5 -50 -11 -92 -14 -97 -7 -167 -42 -214 -107 -56
-77 -68 -163 -34 -252 l19 -52 -45 -48 c-25 -27 -57 -74 -72 -106 -24 -51 -27
-69 -27 -167 0 -105 2 -114 33 -177 44 -89 109 -153 201 -196 68 -33 81 -36
165 -35 68 0 105 6 146 22 l55 21 151 -151 152 -152 38 8 c51 9 110 68 119
119 l8 38 -152 152 -152 152 22 55 c31 76 31 212 0 289 -30 72 -83 143 -137
182 -27 19 -44 39 -44 52 -1 12 -10 46 -21 76 -33 90 -32 88 -10 95 28 8 51
55 51 101 0 52 -53 104 -106 104 -22 0 -46 -4 -54 -9z m98 -51 c28 -26 29 -73
2 -100 -17 -17 -33 -20 -123 -20 -118 0 -142 -11 -153 -65 -3 -18 -15 -41 -25
-51 -25 -22 -24 -65 2 -97 15 -20 19 -38 17 -69 l-3 -43 -56 55 c-81 78 -99
159 -58 250 38 85 106 132 194 134 46 1 50 -1 47 -21 -3 -18 2 -23 17 -23 12
0 21 6 21 14 0 20 48 56 74 56 12 0 32 -9 44 -20z m-33 -212 c13 -29 27 -69
30 -90 7 -34 5 -36 -25 -43 -32 -7 -34 -10 -44 -56 -6 -29 -42 -49 -87 -49
-24 0 -30 -4 -27 -17 2 -10 13 -19 26 -21 25 -4 30 -33 8 -51 -11 -9 -21 -3
-50 29 -34 38 -36 44 -36 108 0 56 -4 72 -20 87 -11 10 -20 25 -20 32 0 8 9
17 20 20 13 3 20 14 20 29 0 67 9 74 101 74 l80 0 24 -52z m142 -232 c19 -21
49 -68 66 -103 26 -57 30 -77 30 -149 0 -77 -3 -91 -37 -158 -94 -192 -310
-265 -499 -170 -196 100 -258 361 -130 543 49 69 67 81 90 59 16 -17 15 -20
-20 -54 -62 -63 -82 -115 -82 -219 0 -74 4 -98 23 -137 95 -192 343 -240 505
-99 20 18 51 61 68 96 65 133 30 296 -83 385 -27 22 -54 40 -59 40 -18 0 -8
21 14 29 28 11 66 -10 114 -63z m-90 -41 c92 -79 122 -223 68 -332 -14 -28
-34 -58 -45 -68 -20 -18 -20 -17 -20 91 0 143 -10 178 -71 237 -27 26 -49 52
-49 58 0 15 42 48 61 49 8 0 34 -16 56 -35z m-323 6 c3 -4 -6 -19 -21 -32 -49
-45 -63 -93 -63 -216 0 -67 -4 -113 -10 -113 -5 0 -17 26 -26 57 -30 104 -5
210 66 282 33 32 45 37 54 22z m96 -86 l44 -45 28 27 28 27 35 -34 c46 -45 55
-81 55 -222 0 -116 0 -118 -27 -135 -16 -11 -52 -19 -95 -21 l-68 -4 0 166 0
165 -30 16 c-28 14 -31 14 -36 0 -4 -9 1 -24 10 -34 13 -14 16 -42 16 -154 0
-154 -3 -158 -67 -114 l-33 22 0 137 c0 75 5 149 11 165 12 32 57 83 74 83 6
0 31 -20 55 -45z m664 -670 c-9 -28 -44 -65 -73 -77 -23 -8 -36 3 -166 132
l-142 142 51 52 51 53 142 -141 c115 -113 142 -145 137 -161z"/>
<path d="M1520 4746 c0 -8 4 -17 9 -20 11 -7 33 18 24 27 -12 12 -33 7 -33 -7z"/>
<path d="M1742 4953 l3 -88 359 -3 c211 -1 364 2 369 7 5 5 6 43 2 90 l-7 81
-364 0 -365 0 3 -87z m138 -3 l0 -50 -45 0 -45 0 0 50 0 50 45 0 45 0 0 -50z
m140 -1 l0 -50 -47 3 -48 3 -3 48 -3 47 50 0 51 0 0 -51z m138 4 l-3 -48 -47
-3 -48 -3 0 50 0 51 51 0 50 0 -3 -47z m140 0 l-3 -48 -47 -3 -48 -3 0 50 0
51 51 0 50 0 -3 -47z m132 -3 l0 -50 -45 0 -45 0 0 50 0 50 45 0 45 0 0 -50z"/>
<path d="M1880 4790 c0 -19 7 -20 205 -20 198 0 205 1 205 20 0 19 -7 20 -205
20 -198 0 -205 -1 -205 -20z"/>
<path d="M1880 4700 c0 -19 7 -20 205 -20 198 0 205 1 205 20 0 19 -7 20 -205
20 -198 0 -205 -1 -205 -20z"/>
<path d="M1880 4610 c0 -13 7 -20 20 -20 13 0 20 7 20 20 0 13 -7 20 -20 20
-13 0 -20 -7 -20 -20z"/>
<path d="M1977 4624 c-16 -16 -6 -34 19 -34 19 0 25 5 22 17 -3 19 -29 29 -41
17z"/>
<path d="M2070 4610 c0 -13 7 -20 20 -20 13 0 20 7 20 20 0 13 -7 20 -20 20
-13 0 -20 -7 -20 -20z"/>
<path d="M2160 4610 c0 -13 7 -20 20 -20 13 0 20 7 20 20 0 13 -7 20 -20 20
-13 0 -20 -7 -20 -20z"/>
<path d="M2250 4610 c0 -13 7 -20 20 -20 13 0 20 7 20 20 0 13 -7 20 -20 20
-13 0 -20 -7 -20 -20z"/>
<path d="M2110 4375 l0 -155 160 0 160 0 0 155 0 155 -160 0 -160 0 0 -155z
m280 0 l0 -115 -120 0 -120 0 0 115 0 115 120 0 120 0 0 -115z"/>
<path d="M2295 4410 c-44 -45 -50 -48 -65 -35 -15 14 -19 14 -30 0 -11 -14 -9
-21 16 -46 l29 -29 65 65 c57 58 63 67 49 80 -13 13 -20 10 -64 -35z"/>
<path d="M2110 4010 l0 -160 160 0 160 0 0 160 0 160 -160 0 -160 0 0 -160z
m278 -3 l3 -118 -118 3 -118 3 -3 104 c-1 58 0 111 2 118 4 11 31 13 118 11
l113 -3 3 -118z"/>
<path d="M2297 4042 c-41 -41 -50 -45 -66 -35 -15 10 -22 9 -30 -1 -8 -9 -3
-20 19 -41 l31 -29 62 62 c55 55 60 63 47 77 -14 13 -21 10 -63 -33z"/>
</g>
</svg>
